<svg width="170" height="55" viewBox="0 0 170 55" fill="none" xmlns="http://www.w3.org/2000/svg">
<path d="M11.1382 54.7523C10.7002 54.7523 10.2729 54.7468 9.83838 54.7371C8.93828 54.7255 8.04029 54.6478 7.15176 54.5047C6.32325 54.3632 5.52065 54.1001 4.77043 53.7239C4.02709 53.3509 3.34911 52.8618 2.76245 52.2753C2.16729 51.6957 1.6718 51.0235 1.29561 50.2853C0.915268 49.5422 0.65205 48.7458 0.515124 47.9237C0.367255 47.0404 0.287251 46.1472 0.275804 45.2519C0.266691 44.9513 0.254761 43.9507 0.254761 43.9507V11.0324C0.254761 11.0324 0.267467 10.0471 0.275876 9.75768C0.286837 8.86376 0.366375 7.97195 0.513801 7.08998C0.650981 6.26565 0.914403 5.46694 1.29495 4.72149C1.66976 3.98379 2.1625 3.31107 2.75407 2.72941C3.34497 2.14223 4.02512 1.65058 4.76973 1.27239C5.51822 0.897452 6.31931 0.636163 7.14614 0.497279C8.03758 0.352735 8.9387 0.274588 9.84192 0.263493L11.1389 0.246094H158.854L160.166 0.264191C161.061 0.274735 161.954 0.352185 162.838 0.495882C163.673 0.636508 164.482 0.899621 165.239 1.27657C166.731 2.03872 167.945 3.24453 168.71 4.72497C169.085 5.46527 169.344 6.25747 169.48 7.07468C169.629 7.96388 169.712 8.8627 169.73 9.76395C169.734 10.1675 169.734 10.601 169.734 11.0324C169.745 11.5668 169.745 12.0754 169.745 12.5882V42.4116C169.745 42.9293 169.745 43.4344 169.734 43.9437C169.734 44.4071 169.734 44.8316 169.728 45.2685C169.711 46.1537 169.629 47.0365 169.482 47.9098C169.348 48.7378 169.087 49.5404 168.706 50.2895C168.327 51.0197 167.835 51.6861 167.247 52.2641C166.659 52.8538 165.98 53.3458 165.235 53.7212C164.48 54.1003 163.672 54.3644 162.838 54.5047C161.949 54.6485 161.051 54.7262 160.151 54.7371C159.73 54.7468 159.289 54.7523 158.861 54.7523L157.303 54.7552L11.1382 54.7523Z" fill="white"/>
</svg>
