<svg width="129" height="17" viewBox="0 0 129 17" fill="none" xmlns="http://www.w3.org/2000/svg">
<path d="M6.424 12.424C5.608 12.424 4.84 12.272 4.12 11.968C3.4 11.6587 2.768 11.232 2.224 10.688C1.68 10.144 1.25333 9.512 0.944 8.792C0.634667 8.072 0.48 7.30133 0.48 6.48C0.48 5.65867 0.634667 4.888 0.944 4.168C1.25333 3.448 1.68 2.816 2.224 2.272C2.768 1.728 3.4 1.304 4.12 0.999999C4.84 0.690666 5.608 0.535999 6.424 0.535999C7.25067 0.535999 8.02133 0.690666 8.736 0.999999C9.456 1.304 10.088 1.728 10.632 2.272C11.176 2.816 11.6027 3.448 11.912 4.168C12.2213 4.888 12.376 5.65867 12.376 6.48C12.376 7.30133 12.2213 8.072 11.912 8.792C11.6027 9.512 11.176 10.144 10.632 10.688C10.088 11.232 9.456 11.6587 8.736 11.968C8.02133 12.272 7.25067 12.424 6.424 12.424ZM6.496 9.848C6.01067 9.848 5.576 9.76533 5.192 9.6C4.808 9.43467 4.472 9.17067 4.184 8.808C3.90667 8.456 3.71467 8.07733 3.608 7.672C3.50667 7.26667 3.456 6.86133 3.456 6.456C3.46133 6.04 3.51733 5.632 3.624 5.232C3.736 4.832 3.92267 4.46667 4.184 4.136C4.472 3.77867 4.81067 3.51467 5.2 3.344C5.58933 3.17333 6.03733 3.088 6.544 3.088C6.832 3.088 7.104 3.12 7.36 3.184C7.616 3.24267 7.86933 3.34667 8.12 3.496C8.376 3.656 8.60267 3.856 8.8 4.096C8.99733 4.336 9.13867 4.61333 9.224 4.928L8.24 5.224C8.176 5.05867 8.08533 4.89867 7.968 4.744C7.85067 4.58933 7.71467 4.456 7.56 4.344C7.41067 4.23733 7.24267 4.16 7.056 4.112C6.87467 4.05867 6.69067 4.032 6.504 4.032C6.19467 4.032 5.912 4.096 5.656 4.224C5.4 4.34667 5.18133 4.52 5 4.744C4.81867 4.97867 4.69333 5.248 4.624 5.552C4.55467 5.85067 4.52 6.14933 4.52 6.448C4.52 6.77333 4.55733 7.088 4.632 7.392C4.712 7.696 4.83467 7.96 5 8.184C5.17067 8.41867 5.384 8.59733 5.64 8.72C5.90133 8.84267 6.18933 8.904 6.504 8.904C6.92 8.904 7.27733 8.80267 7.576 8.6C7.73067 8.488 7.85867 8.36267 7.96 8.224C8.06133 8.08533 8.14667 7.93067 8.216 7.76L9.224 8.032C9.10667 8.336 8.95733 8.6 8.776 8.824C8.59467 9.048 8.40533 9.22933 8.208 9.368C7.968 9.528 7.70933 9.648 7.432 9.728C7.16 9.808 6.848 9.848 6.496 9.848ZM6.424 11.28C7.09067 11.28 7.712 11.1573 8.288 10.912C8.864 10.6613 9.37067 10.3173 9.808 9.88C10.2507 9.43733 10.5947 8.92533 10.84 8.344C11.0907 7.75733 11.216 7.13333 11.216 6.472C11.216 5.80533 11.0907 5.184 10.84 4.608C10.5947 4.032 10.2507 3.52533 9.808 3.088C9.37067 2.64533 8.864 2.30133 8.288 2.056C7.712 1.80533 7.09067 1.68 6.424 1.68C5.76267 1.68 5.13867 1.80533 4.552 2.056C3.97067 2.30133 3.45867 2.64533 3.016 3.088C2.57867 3.52533 2.23467 4.032 1.984 4.608C1.73867 5.184 1.616 5.80533 1.616 6.472C1.616 7.13333 1.73867 7.75733 1.984 8.344C2.23467 8.92533 2.57867 9.43733 3.016 9.88C3.45867 10.3173 3.97067 10.6613 4.552 10.912C5.13867 11.1573 5.76267 11.28 6.424 11.28ZM21.8465 12.24C20.6998 12.24 19.7318 11.9867 18.9425 11.48C18.1532 10.968 17.5558 10.2613 17.1505 9.36C16.7452 8.45867 16.5425 7.41867 16.5425 6.24C16.5425 5.06133 16.7452 4.02133 17.1505 3.12C17.5558 2.21867 18.1532 1.51467 18.9425 1.008C19.7318 0.496 20.6998 0.24 21.8465 0.24C23.1852 0.24 24.2785 0.584 25.1265 1.272C25.9745 1.95467 26.5558 2.872 26.8705 4.024L25.6705 4.336C25.4252 3.424 24.9852 2.70133 24.3505 2.168C23.7158 1.63467 22.8812 1.368 21.8465 1.368C20.9452 1.368 20.1958 1.57333 19.5985 1.984C19.0012 2.39467 18.5505 2.968 18.2465 3.704C17.9478 4.43467 17.7932 5.28 17.7825 6.24C17.7772 7.2 17.9238 8.04533 18.2225 8.776C18.5265 9.50667 18.9798 10.08 19.5825 10.496C20.1905 10.9067 20.9452 11.112 21.8465 11.112C22.8812 11.112 23.7158 10.8453 24.3505 10.312C24.9852 9.77333 25.4252 9.05067 25.6705 8.144L26.8705 8.456C26.5558 9.608 25.9745 10.528 25.1265 11.216C24.2785 11.8987 23.1852 12.24 21.8465 12.24ZM32.2436 12.24C31.385 12.24 30.6516 12.0453 30.0436 11.656C29.4356 11.2667 28.969 10.728 28.6436 10.04C28.3183 9.352 28.1556 8.56267 28.1556 7.672C28.1556 6.76533 28.321 5.97067 28.6516 5.288C28.9823 4.60533 29.4516 4.07467 30.0596 3.696C30.673 3.312 31.401 3.12 32.2436 3.12C33.1076 3.12 33.8436 3.31467 34.4516 3.704C35.065 4.088 35.5316 4.624 35.8516 5.312C36.177 5.99467 36.3396 6.78133 36.3396 7.672C36.3396 8.57867 36.177 9.376 35.8516 10.064C35.5263 10.7467 35.057 11.28 34.4436 11.664C33.8303 12.048 33.097 12.24 32.2436 12.24ZM32.2436 11.112C33.2036 11.112 33.9183 10.7947 34.3876 10.16C34.857 9.52 35.0916 8.69067 35.0916 7.672C35.0916 6.62667 34.8543 5.79467 34.3796 5.176C33.9103 4.55733 33.1983 4.248 32.2436 4.248C31.5983 4.248 31.065 4.39467 30.6436 4.688C30.2276 4.976 29.9156 5.37867 29.7076 5.896C29.505 6.408 29.4036 7 29.4036 7.672C29.4036 8.712 29.6436 9.54667 30.1236 10.176C30.6036 10.8 31.3103 11.112 32.2436 11.112ZM41.9844 12.24C41.1897 12.24 40.5177 12.04 39.9684 11.64C39.419 11.2347 39.003 10.688 38.7204 10C38.4377 9.30667 38.2964 8.53067 38.2964 7.672C38.2964 6.79733 38.4377 6.01867 38.7204 5.336C39.0084 4.648 39.4297 4.10667 39.9844 3.712C40.539 3.31733 41.2217 3.12 42.0324 3.12C42.8217 3.12 43.499 3.32 44.0644 3.72C44.6297 4.12 45.0617 4.664 45.3604 5.352C45.6644 6.04 45.8164 6.81333 45.8164 7.672C45.8164 8.536 45.6644 9.312 45.3604 10C45.0564 10.688 44.619 11.2347 44.0484 11.64C43.4777 12.04 42.7897 12.24 41.9844 12.24ZM38.0964 15.84V3.36H39.1524V9.864H39.2804V15.84H38.0964ZM41.8644 11.144C42.467 11.144 42.9684 10.992 43.3684 10.688C43.7684 10.384 44.067 9.97067 44.2644 9.448C44.467 8.92 44.5684 8.328 44.5684 7.672C44.5684 7.02133 44.4697 6.43467 44.2724 5.912C44.075 5.38933 43.7737 4.976 43.3684 4.672C42.9684 4.368 42.459 4.216 41.8404 4.216C41.2377 4.216 40.7364 4.36267 40.3364 4.656C39.9417 4.94933 39.6457 5.35733 39.4484 5.88C39.251 6.39733 39.1524 6.99467 39.1524 7.672C39.1524 8.33867 39.251 8.936 39.4484 9.464C39.6457 9.98667 39.9444 10.3973 40.3444 10.696C40.7444 10.9947 41.251 11.144 41.8644 11.144ZM48.4926 15.84L50.1646 11.304L50.1886 12.648L46.4046 3.36H47.6526L50.7566 11.128H50.2446L53.1086 3.36H54.3086L49.6686 15.84H48.4926ZM55.6981 12V3.36H56.7541V5.44L56.5461 5.168C56.6421 4.912 56.7675 4.67733 56.9221 4.464C57.0768 4.24533 57.2448 4.06667 57.4261 3.928C57.6501 3.73067 57.9115 3.58133 58.2101 3.48C58.5088 3.37333 58.8101 3.312 59.1141 3.296C59.4181 3.27467 59.6955 3.296 59.9461 3.36V4.464C59.6315 4.384 59.2875 4.36533 58.9141 4.408C58.5408 4.45067 58.1968 4.6 57.8821 4.856C57.5941 5.08 57.3781 5.34933 57.2341 5.664C57.0901 5.97333 56.9941 6.304 56.9461 6.656C56.8981 7.00267 56.8741 7.34667 56.8741 7.688V12H55.6981ZM61.6238 1.72V0.4H62.7998V1.72H61.6238ZM61.6238 12V3.36H62.7998V12H61.6238ZM68.6301 16.08C68.1875 16.08 67.7501 16.0133 67.3181 15.88C66.8915 15.752 66.4968 15.5467 66.1341 15.264C65.7715 14.9867 65.4675 14.624 65.2221 14.176L66.2861 13.584C66.5261 14.064 66.8621 14.408 67.2941 14.616C67.7315 14.8293 68.1768 14.936 68.6301 14.936C69.2541 14.936 69.7581 14.8187 70.1421 14.584C70.5315 14.3547 70.8141 14.0133 70.9901 13.56C71.1661 13.1067 71.2515 12.5413 71.2461 11.864V9.56H71.3821V3.36H72.4301V11.88C72.4301 12.1253 72.4221 12.36 72.4061 12.584C72.3955 12.8133 72.3715 13.0373 72.3341 13.256C72.2328 13.9013 72.0221 14.432 71.7021 14.848C71.3875 15.264 70.9715 15.5733 70.4541 15.776C69.9421 15.9787 69.3341 16.08 68.6301 16.08ZM68.5501 12.24C67.7448 12.24 67.0568 12.04 66.4861 11.64C65.9155 11.2347 65.4781 10.688 65.1741 10C64.8701 9.312 64.7181 8.536 64.7181 7.672C64.7181 6.81333 64.8675 6.04 65.1661 5.352C65.4701 4.664 65.9048 4.12 66.4701 3.72C67.0355 3.32 67.7128 3.12 68.5021 3.12C69.3128 3.12 69.9955 3.31733 70.5501 3.712C71.1048 4.10667 71.5235 4.648 71.8061 5.336C72.0941 6.01867 72.2381 6.79733 72.2381 7.672C72.2381 8.53067 72.0968 9.30667 71.8141 10C71.5315 10.688 71.1155 11.2347 70.5661 11.64C70.0168 12.04 69.3448 12.24 68.5501 12.24ZM68.6701 11.144C69.2835 11.144 69.7901 10.9947 70.1901 10.696C70.5901 10.3973 70.8888 9.98667 71.0861 9.464C71.2835 8.936 71.3821 8.33867 71.3821 7.672C71.3821 6.99467 71.2835 6.39733 71.0861 5.88C70.8888 5.35733 70.5901 4.94933 70.1901 4.656C69.7955 4.36267 69.2968 4.216 68.6941 4.216C68.0755 4.216 67.5635 4.368 67.1581 4.672C66.7528 4.976 66.4515 5.38933 66.2541 5.912C66.0621 6.43467 65.9661 7.02133 65.9661 7.672C65.9661 8.328 66.0648 8.92 66.2621 9.448C66.4648 9.97067 66.7661 10.384 67.1661 10.688C67.5661 10.992 68.0675 11.144 68.6701 11.144ZM80.9069 12V7.592C80.9069 7.112 80.8615 6.672 80.7709 6.272C80.6802 5.86667 80.5335 5.51467 80.3309 5.216C80.1335 4.912 79.8749 4.67733 79.5549 4.512C79.2402 4.34667 78.8562 4.264 78.4029 4.264C77.9869 4.264 77.6189 4.336 77.2989 4.48C76.9842 4.624 76.7175 4.832 76.4989 5.104C76.2855 5.37067 76.1229 5.696 76.0109 6.08C75.8989 6.464 75.8429 6.90133 75.8429 7.392L75.0109 7.208C75.0109 6.32267 75.1655 5.57867 75.4749 4.976C75.7842 4.37333 76.2109 3.91733 76.7549 3.608C77.2989 3.29867 77.9229 3.144 78.6269 3.144C79.1442 3.144 79.5949 3.224 79.9789 3.384C80.3682 3.544 80.6962 3.76 80.9629 4.032C81.2349 4.304 81.4535 4.616 81.6189 4.968C81.7842 5.31467 81.9042 5.68533 81.9789 6.08C82.0535 6.46933 82.0909 6.85867 82.0909 7.248V12H80.9069ZM74.6589 12V0.48H75.7229V6.984H75.8429V12H74.6589ZM88.8709 12C88.3855 12.1013 87.9055 12.1413 87.4309 12.12C86.9615 12.0987 86.5402 11.9973 86.1669 11.816C85.7989 11.6347 85.5189 11.352 85.3269 10.968C85.1722 10.648 85.0869 10.3253 85.0709 10C85.0602 9.66933 85.0549 9.29333 85.0549 8.872V0.959999H86.2229V8.824C86.2229 9.18667 86.2255 9.49067 86.2309 9.736C86.2415 9.976 86.2975 10.1893 86.3989 10.376C86.5909 10.7333 86.8949 10.9467 87.3109 11.016C87.7322 11.0853 88.2522 11.0693 88.8709 10.968V12ZM83.2069 4.368V3.36H88.8709V4.368H83.2069ZM93.4563 11.992L93.4643 10.92L98.6723 6.216C99.1203 5.81067 99.4163 5.42667 99.5603 5.064C99.7096 4.696 99.7843 4.312 99.7843 3.912C99.7843 3.43733 99.6723 3.008 99.4483 2.624C99.2243 2.24 98.9229 1.936 98.5443 1.712C98.1656 1.48267 97.7416 1.368 97.2723 1.368C96.7816 1.368 96.3443 1.48533 95.9603 1.72C95.5763 1.95467 95.2723 2.264 95.0483 2.648C94.8296 3.032 94.7229 3.45067 94.7283 3.904H93.5283C93.5283 3.20533 93.6936 2.57867 94.0243 2.024C94.3549 1.46933 94.8029 1.03467 95.3683 0.719999C95.9336 0.4 96.5736 0.24 97.2883 0.24C97.9869 0.24 98.6136 0.405333 99.1683 0.735999C99.7283 1.06133 100.168 1.504 100.488 2.064C100.814 2.61867 100.976 3.23733 100.976 3.92C100.976 4.4 100.918 4.824 100.8 5.192C100.688 5.55467 100.51 5.89333 100.264 6.208C100.024 6.51733 99.7176 6.83733 99.3443 7.168L94.7203 11.344L94.5363 10.864H100.976V11.992H93.4563ZM106.661 12.24C105.952 12.24 105.312 12.0747 104.741 11.744C104.176 11.4133 103.728 10.9653 103.397 10.4C103.067 9.82933 102.901 9.18933 102.901 8.48V4C102.901 3.29067 103.067 2.65333 103.397 2.088C103.728 1.51733 104.176 1.06667 104.741 0.735999C105.312 0.405333 105.952 0.24 106.661 0.24C107.371 0.24 108.008 0.405333 108.573 0.735999C109.144 1.06667 109.595 1.51733 109.925 2.088C110.256 2.65333 110.421 3.29067 110.421 4V8.48C110.421 9.18933 110.256 9.82933 109.925 10.4C109.595 10.9653 109.144 11.4133 108.573 11.744C108.008 12.0747 107.371 12.24 106.661 12.24ZM106.661 11.104C107.136 11.104 107.568 10.9893 107.957 10.76C108.347 10.5253 108.656 10.2133 108.885 9.824C109.115 9.43467 109.229 9.00533 109.229 8.536V3.944C109.229 3.46933 109.115 3.03733 108.885 2.648C108.656 2.25867 108.347 1.94933 107.957 1.72C107.568 1.48533 107.136 1.368 106.661 1.368C106.187 1.368 105.755 1.48533 105.365 1.72C104.976 1.94933 104.667 2.25867 104.437 2.648C104.208 3.03733 104.093 3.46933 104.093 3.944V8.536C104.093 9.00533 104.208 9.43467 104.437 9.824C104.667 10.2133 104.976 10.5253 105.365 10.76C105.755 10.9893 106.187 11.104 106.661 11.104ZM112.347 11.992L112.355 10.92L117.563 6.216C118.011 5.81067 118.307 5.42667 118.451 5.064C118.6 4.696 118.675 4.312 118.675 3.912C118.675 3.43733 118.563 3.008 118.339 2.624C118.115 2.24 117.814 1.936 117.435 1.712C117.056 1.48267 116.632 1.368 116.163 1.368C115.672 1.368 115.235 1.48533 114.851 1.72C114.467 1.95467 114.163 2.264 113.939 2.648C113.72 3.032 113.614 3.45067 113.619 3.904H112.419C112.419 3.20533 112.584 2.57867 112.915 2.024C113.246 1.46933 113.694 1.03467 114.259 0.719999C114.824 0.4 115.464 0.24 116.179 0.24C116.878 0.24 117.504 0.405333 118.059 0.735999C118.619 1.06133 119.059 1.504 119.379 2.064C119.704 2.61867 119.867 3.23733 119.867 3.92C119.867 4.4 119.808 4.824 119.691 5.192C119.579 5.55467 119.4 5.89333 119.155 6.208C118.915 6.51733 118.608 6.83733 118.235 7.168L113.611 11.344L113.427 10.864H119.867V11.992H112.347ZM121.472 11.992L121.48 10.92L126.688 6.216C127.136 5.81067 127.432 5.42667 127.576 5.064C127.725 4.696 127.8 4.312 127.8 3.912C127.8 3.43733 127.688 3.008 127.464 2.624C127.24 2.24 126.939 1.936 126.56 1.712C126.181 1.48267 125.757 1.368 125.288 1.368C124.797 1.368 124.36 1.48533 123.976 1.72C123.592 1.95467 123.288 2.264 123.064 2.648C122.845 3.032 122.739 3.45067 122.744 3.904H121.544C121.544 3.20533 121.709 2.57867 122.04 2.024C122.371 1.46933 122.819 1.03467 123.384 0.719999C123.949 0.4 124.589 0.24 125.304 0.24C126.003 0.24 126.629 0.405333 127.184 0.735999C127.744 1.06133 128.184 1.504 128.504 2.064C128.829 2.61867 128.992 3.23733 128.992 3.92C128.992 4.4 128.933 4.824 128.816 5.192C128.704 5.55467 128.525 5.89333 128.28 6.208C128.04 6.51733 127.733 6.83733 127.36 7.168L122.736 11.344L122.552 10.864H128.992V11.992H121.472Z" fill="#7C7C7C"/>
</svg>
