<svg width="21" height="24" viewBox="0 0 21 24" fill="none" xmlns="http://www.w3.org/2000/svg">
<g clip-path="url(#clip0_27_88)">
<path d="M14.6417 1.52588e-05C14.7208 0.0318903 14.7999 0.0625145 14.8777 0.0968895C15.1087 0.199258 15.2986 0.375821 15.4169 0.598324C15.5352 0.820827 15.5751 1.07641 15.5303 1.32418C15.4855 1.57195 15.3585 1.79759 15.1696 1.96498C14.9807 2.13238 14.7409 2.23186 14.4885 2.24751C14.4025 2.25189 14.3159 2.24751 14.2293 2.24751H3.92075C2.88312 2.24751 2.26229 2.86126 2.26229 3.88939V20.1081C2.26229 21.135 2.88437 21.75 3.92138 21.75C7.40526 21.75 10.8889 21.75 14.3724 21.75C14.9713 21.75 15.4483 22.1338 15.535 22.6738C15.6298 23.2613 15.3153 23.7575 14.7246 23.9569C14.6962 23.9687 14.6689 23.9829 14.643 23.9994H3.34261C3.30078 23.9815 3.25753 23.9671 3.2133 23.9563C2.32373 23.8257 1.5107 23.3818 0.921882 22.7051C0.333064 22.0285 0.00751315 21.164 0.00435912 20.2688C-0.00275512 14.7558 -0.00275512 9.24293 0.00435912 3.73001C0.00721815 2.89892 0.287888 2.09243 0.802095 1.43776C1.3163 0.783078 2.03478 0.317473 2.8442 0.114389C3.00929 0.0725144 3.17627 0.0375146 3.34261 -0.000610352L14.6417 1.52588e-05Z" fill="#222222"/>
<path d="M17.1273 10.875C17.0293 10.7725 16.9735 10.7112 16.9145 10.6519C15.8473 9.58936 14.7802 8.53499 13.7206 7.46936C13.0715 6.81624 13.3395 5.78186 14.2108 5.55874C14.4012 5.50536 14.6027 5.50499 14.7932 5.55767C14.9838 5.61034 15.1563 5.71404 15.2918 5.85748C15.7375 6.29748 16.1815 6.73894 16.6238 7.18186L20.5509 11.0925C21.1497 11.6881 21.1504 12.3112 20.5509 12.905C18.8146 14.6337 17.0779 16.3629 15.3407 18.0925C14.8304 18.5994 14.1004 18.5981 13.6528 18.0994C13.2404 17.6406 13.268 16.9819 13.7306 16.5181C14.5592 15.6869 15.391 14.8581 16.2258 14.0319L17.1411 13.125H16.8391C13.9993 13.125 11.1594 13.125 8.31961 13.125C7.75465 13.125 7.31524 12.8237 7.16521 12.3375C7.11326 12.1711 7.10082 11.995 7.12888 11.823C7.15695 11.6511 7.22475 11.4879 7.32693 11.3465C7.42912 11.2051 7.5629 11.0892 7.71774 11.008C7.87257 10.9268 8.04422 10.8826 8.21917 10.8787C8.87012 10.8669 9.5217 10.8787 10.1727 10.8787H17.1273V10.875Z" fill="#222222"/>
</g>
<defs>
<clipPath id="clip0_27_88">
<rect width="21" height="24" fill="white"/>
</clipPath>
</defs>
</svg>
