<svg width="122" height="13" viewBox="0 0 122 13" fill="none" xmlns="http://www.w3.org/2000/svg">
<path d="M0.12 12V0.48H2.048V5.328H7.504V0.48H9.424V12H7.504V7.136H2.048V12H0.12ZM11.6669 12V0.48H19.1069V2.288H13.5949V5.128H18.1469V6.936H13.5949V10.192H19.1069V12H11.6669ZM20.0663 12L23.9703 6.176L20.1783 0.48H22.5383L25.1623 4.536L27.7623 0.48H30.1383L26.3463 6.176L30.2343 12H27.8743L25.1623 7.816L22.4423 12H20.0663ZM31.5106 12V0.48H33.2466L37.2306 8.64L41.2146 0.48H42.9506V12H41.1506V4.616L37.6146 12H36.8466L33.3186 4.616V12H31.5106ZM47.6141 12.24C46.9901 12.24 46.4621 12.1227 46.0301 11.888C45.5981 11.648 45.2701 11.3307 45.0461 10.936C44.8275 10.5413 44.7181 10.1067 44.7181 9.632C44.7181 9.216 44.7875 8.84267 44.9261 8.512C45.0648 8.176 45.2781 7.888 45.5661 7.648C45.8541 7.40267 46.2275 7.20267 46.6861 7.048C47.0328 6.936 47.4381 6.83467 47.9021 6.744C48.3715 6.65333 48.8781 6.57067 49.4221 6.496C49.9715 6.416 50.5448 6.33067 51.1421 6.24L50.4541 6.632C50.4595 6.03467 50.3261 5.59467 50.0541 5.312C49.7821 5.02933 49.3235 4.888 48.6781 4.888C48.2888 4.888 47.9128 4.97867 47.5501 5.16C47.1875 5.34133 46.9341 5.65333 46.7901 6.096L45.0301 5.544C45.2435 4.81333 45.6488 4.22667 46.2461 3.784C46.8488 3.34133 47.6595 3.12 48.6781 3.12C49.4461 3.12 50.1208 3.24533 50.7021 3.496C51.2888 3.74667 51.7235 4.15733 52.0061 4.728C52.1608 5.032 52.2541 5.344 52.2861 5.664C52.3181 5.97867 52.3341 6.32267 52.3341 6.696V12H50.6461V10.128L50.9261 10.432C50.5368 11.056 50.0808 11.5147 49.5581 11.808C49.0408 12.096 48.3928 12.24 47.6141 12.24ZM47.9981 10.704C48.4355 10.704 48.8088 10.6267 49.1181 10.472C49.4275 10.3173 49.6728 10.128 49.8541 9.904C50.0408 9.68 50.1661 9.46933 50.2301 9.272C50.3315 9.02667 50.3875 8.74667 50.3981 8.432C50.4141 8.112 50.4221 7.85333 50.4221 7.656L51.0141 7.832C50.4328 7.92267 49.9341 8.00267 49.5181 8.072C49.1021 8.14133 48.7448 8.208 48.4461 8.272C48.1475 8.33067 47.8835 8.39733 47.6541 8.472C47.4301 8.552 47.2408 8.64533 47.0861 8.752C46.9315 8.85867 46.8115 8.98133 46.7261 9.12C46.6461 9.25867 46.6061 9.42133 46.6061 9.608C46.6061 9.82133 46.6595 10.0107 46.7661 10.176C46.8728 10.336 47.0275 10.464 47.2301 10.56C47.4381 10.656 47.6941 10.704 47.9981 10.704ZM54.4169 12V3.36H56.1209V5.464L55.9129 5.192C56.0195 4.904 56.1609 4.64267 56.3369 4.408C56.5182 4.168 56.7342 3.97067 56.9849 3.816C57.1982 3.672 57.4329 3.56 57.6889 3.48C57.9502 3.39467 58.2169 3.344 58.4889 3.328C58.7609 3.30667 59.0249 3.31733 59.2809 3.36V5.16C59.0249 5.08533 58.7289 5.06133 58.3929 5.088C58.0622 5.11467 57.7635 5.208 57.4969 5.368C57.2302 5.512 57.0115 5.696 56.8409 5.92C56.6755 6.144 56.5529 6.4 56.4729 6.688C56.3929 6.97067 56.3529 7.27733 56.3529 7.608V12H54.4169ZM60.7915 12L60.8075 0.48H62.7595V7.52L65.9195 3.36H68.3275L64.9755 7.68L68.6155 12H66.0635L62.7595 7.84V12H60.7915ZM73.1886 12.24C72.314 12.24 71.546 12.0507 70.8846 11.672C70.2233 11.2933 69.706 10.768 69.3326 10.096C68.9646 9.424 68.7806 8.65067 68.7806 7.776C68.7806 6.832 68.962 6.01333 69.3246 5.32C69.6873 4.62133 70.1913 4.08 70.8366 3.696C71.482 3.312 72.2286 3.12 73.0766 3.12C73.9726 3.12 74.7326 3.33067 75.3566 3.752C75.986 4.168 76.4526 4.75733 76.7566 5.52C77.0606 6.28267 77.1753 7.18133 77.1006 8.216H75.1886V7.512C75.1833 6.57333 75.018 5.888 74.6926 5.456C74.3673 5.024 73.8553 4.808 73.1566 4.808C72.3673 4.808 71.7806 5.05333 71.3966 5.544C71.0126 6.02933 70.8206 6.74133 70.8206 7.68C70.8206 8.55467 71.0126 9.232 71.3966 9.712C71.7806 10.192 72.3406 10.432 73.0766 10.432C73.5513 10.432 73.9593 10.328 74.3006 10.12C74.6473 9.90667 74.914 9.6 75.1006 9.2L77.0046 9.776C76.674 10.5547 76.162 11.16 75.4686 11.592C74.7806 12.024 74.0206 12.24 73.1886 12.24ZM70.2126 8.216V6.76H76.1566V8.216H70.2126ZM83.9496 12C83.379 12.1067 82.819 12.152 82.2696 12.136C81.7256 12.1253 81.2376 12.0267 80.8056 11.84C80.3736 11.648 80.0456 11.3467 79.8216 10.936C79.6243 10.5627 79.5203 10.1813 79.5096 9.792C79.499 9.40267 79.4936 8.96267 79.4936 8.472V0.959999H81.4136V8.36C81.4136 8.70667 81.4163 9.01067 81.4216 9.272C81.4323 9.53333 81.4883 9.74667 81.5896 9.912C81.7816 10.232 82.0883 10.4107 82.5096 10.448C82.931 10.4853 83.411 10.464 83.9496 10.384V12ZM77.9256 4.872V3.36H83.9496V4.872H77.9256ZM86.1275 12V10.024H88.1035V12H86.1275ZM94.4189 12.24C93.5282 12.24 92.7682 12.0427 92.1389 11.648C91.5095 11.248 91.0269 10.704 90.6909 10.016C90.3602 9.328 90.1922 8.54933 90.1869 7.68C90.1922 6.79467 90.3655 6.01067 90.7069 5.328C91.0535 4.64 91.5442 4.10133 92.1789 3.712C92.8135 3.31733 93.5682 3.12 94.4429 3.12C95.4242 3.12 96.2535 3.368 96.9309 3.864C97.6135 4.35467 98.0589 5.02667 98.2669 5.88L96.3469 6.4C96.1975 5.936 95.9495 5.576 95.6029 5.32C95.2562 5.05867 94.8615 4.928 94.4189 4.928C93.9175 4.928 93.5042 5.048 93.1789 5.288C92.8535 5.52267 92.6135 5.848 92.4589 6.264C92.3042 6.68 92.2269 7.152 92.2269 7.68C92.2269 8.50133 92.4109 9.16533 92.7789 9.672C93.1469 10.1787 93.6935 10.432 94.4189 10.432C94.9309 10.432 95.3335 10.3147 95.6269 10.08C95.9255 9.84533 96.1495 9.50667 96.2989 9.064L98.2669 9.504C98.0002 10.384 97.5335 11.0613 96.8669 11.536C96.2002 12.0053 95.3842 12.24 94.4189 12.24ZM103.452 12.24C102.588 12.24 101.833 12.0453 101.188 11.656C100.542 11.2667 100.041 10.7307 99.6836 10.048C99.3316 9.36 99.1556 8.57067 99.1556 7.68C99.1556 6.77333 99.337 5.97867 99.6996 5.296C100.062 4.61333 100.566 4.08 101.212 3.696C101.857 3.312 102.604 3.12 103.452 3.12C104.321 3.12 105.078 3.31467 105.724 3.704C106.369 4.09333 106.87 4.632 107.228 5.32C107.585 6.00267 107.764 6.78933 107.764 7.68C107.764 8.576 107.582 9.368 107.22 10.056C106.862 10.7387 106.361 11.2747 105.716 11.664C105.07 12.048 104.316 12.24 103.452 12.24ZM103.452 10.432C104.22 10.432 104.79 10.176 105.164 9.664C105.537 9.152 105.724 8.49067 105.724 7.68C105.724 6.84267 105.534 6.176 105.156 5.68C104.777 5.17867 104.209 4.928 103.452 4.928C102.934 4.928 102.508 5.04533 102.172 5.28C101.841 5.50933 101.596 5.832 101.436 6.248C101.276 6.65867 101.196 7.136 101.196 7.68C101.196 8.51733 101.385 9.18667 101.764 9.688C102.148 10.184 102.71 10.432 103.452 10.432ZM119.902 12V6.752C119.902 6.16 119.756 5.69867 119.462 5.368C119.169 5.032 118.772 4.864 118.27 4.864C117.961 4.864 117.684 4.936 117.438 5.08C117.193 5.21867 116.998 5.42667 116.854 5.704C116.71 5.976 116.638 6.30133 116.638 6.68L115.782 6.176C115.777 5.57867 115.91 5.05333 116.182 4.6C116.46 4.14133 116.833 3.784 117.302 3.528C117.772 3.272 118.294 3.144 118.87 3.144C119.825 3.144 120.556 3.432 121.062 4.008C121.574 4.57867 121.83 5.33067 121.83 6.264V12H119.902ZM109.51 12V3.36H111.214V6.04H111.454V12H109.51ZM114.718 12V6.776C114.718 6.17333 114.572 5.704 114.278 5.368C113.985 5.032 113.585 4.864 113.078 4.864C112.588 4.864 112.193 5.032 111.894 5.368C111.601 5.704 111.454 6.14133 111.454 6.68L110.59 6.104C110.59 5.544 110.729 5.04 111.006 4.592C111.284 4.144 111.657 3.792 112.126 3.536C112.601 3.27467 113.132 3.144 113.718 3.144C114.364 3.144 114.902 3.28267 115.334 3.56C115.772 3.832 116.097 4.20533 116.31 4.68C116.529 5.14933 116.638 5.68 116.638 6.272V12H114.718Z" fill="#222222"/>
</svg>
