<svg width="93" height="105" viewBox="0 0 93 105" fill="none" xmlns="http://www.w3.org/2000/svg">
<g clip-path="url(#clip0_35_305)">
<path d="M40.3642 16.1781C39.4905 16.1781 38.6526 16.5274 38.0348 17.1491C37.417 17.7708 37.0699 18.614 37.0699 19.4933V48.8243H17.3037V34.8177C17.3037 33.9385 16.9566 33.0952 16.3388 32.4735C15.721 31.8518 14.883 31.5025 14.0093 31.5025C13.1356 31.5025 12.2976 31.8518 11.6798 32.4735C11.062 33.0952 10.7149 33.9385 10.7149 34.8177V51.866C10.7149 51.9655 10.7149 52.0649 10.7149 52.1727C10.7149 52.2804 10.7149 52.3716 10.7149 52.471V70.1078C10.7149 70.987 11.062 71.8303 11.6798 72.452C12.2976 73.0737 13.1356 73.423 14.0093 73.423C14.883 73.423 15.721 73.0737 16.3388 72.452C16.9566 71.8303 17.3037 70.987 17.3037 70.1078V55.5127H37.0699V85.4736C37.0699 86.3595 37.4196 87.209 38.042 87.8354C38.6645 88.4618 39.5087 88.8137 40.389 88.8137C41.2692 88.8137 42.1134 88.4618 42.7359 87.8354C43.3583 87.209 43.708 86.3595 43.708 85.4736V19.5264C43.7125 19.0841 43.6289 18.6453 43.4622 18.236C43.2955 17.8266 43.0492 17.455 42.7375 17.143C42.4259 16.8309 42.0554 16.5848 41.6478 16.4191C41.2402 16.2534 40.8038 16.1715 40.3642 16.1781Z" fill="white"/>
<path d="M92.86 26.0987L46.3518 0L0.00823593 26.3391L0.148233 78.9013L46.6483 105L93.0082 78.6609L92.86 26.0987ZM46.6153 96.0822L7.90651 74.3595L7.79119 30.8394L46.3765 8.90954L85.0853 30.6405L85.2006 74.1606L46.6153 96.0822Z" fill="white"/>
<path d="M79.419 32.9612C78.7564 32.753 78.0449 32.7647 77.3894 32.9945C76.734 33.2243 76.1693 33.6601 75.7787 34.2375L66.365 48.0535L55.6583 19.8745C55.3834 19.1651 54.8713 18.5743 54.2102 18.2038C53.5491 17.8333 52.7804 17.7063 52.0363 17.8447C51.2922 17.983 50.6193 18.3781 50.1334 18.9619C49.6476 19.5457 49.3791 20.2816 49.3743 21.0431V85.6228C49.3522 86.066 49.4197 86.5091 49.573 86.9252C49.7263 87.3414 49.962 87.7218 50.2659 88.0434C50.5698 88.365 50.9355 88.621 51.3408 88.796C51.746 88.971 52.1824 89.0612 52.6234 89.0612C53.0644 89.0612 53.5008 88.971 53.9061 88.796C54.3113 88.621 54.677 88.365 54.9809 88.0434C55.2848 87.7218 55.5205 87.3414 55.6738 86.9252C55.827 86.5091 55.8947 86.066 55.8725 85.6228V38.7959L62.4612 56.242C62.6718 56.8003 63.0304 57.2898 63.4982 57.6573C63.966 58.0248 64.5249 58.2562 65.1143 58.3262C65.7036 58.3963 66.3007 58.3024 66.8407 58.0548C67.3807 57.8071 67.8429 57.4152 68.177 56.9216L75.1939 46.6694V70.6382C75.1928 71.0677 75.276 71.4932 75.4386 71.8904C75.6012 72.2875 75.84 72.6485 76.1414 72.9526C76.4429 73.2567 76.801 73.4979 77.1952 73.6626C77.5894 73.8272 78.012 73.9119 78.4389 73.9119C78.8653 73.913 79.2878 73.8293 79.682 73.6656C80.0761 73.5019 80.4343 73.2614 80.7358 72.9579C81.0374 72.6545 81.2764 72.2941 81.4391 71.8974C81.6018 71.5007 81.6849 71.0756 81.6838 70.6465V36.1106C81.6839 35.4125 81.465 34.7322 81.0583 34.1667C80.6516 33.6012 80.0779 33.1793 79.419 32.9612Z" fill="white"/>
</g>
<defs>
<clipPath id="clip0_35_305">
<rect width="93" height="105" fill="white"/>
</clipPath>
</defs>
</svg>
